' Generated by UML Generator
' Encoded: rHbTRzisyDs_GkXU5CGkXc5FGHSqTPesG-rbjj5r7OQ1bXYR24KA99LQwPBVlYCbVaboagO5XZvPl2_U7O_tGR-K2WbL5NGahmWhaK15ab4avObIWgmhXSyppfRa1YS_ZhOanqb6H4RnQ6IeaXaYBFayIfB3po19aUmsAG2K8h6HHyaIPB3DNtyV72NNdEH0Dd5a6wpU8qhoSwPIcJ41r1bY38jnKWfUbCgo0pDXgiCBT4ZX2rXYfcHN0F2X3LxMKk7YA5a5go5DIf9TBJWlLdM9lqvImNDoMJjPelsmbeoJhv9-IIXT2OnK0JRhJMJwi83RqGYjfH8eKqbxP3Wd6Q9Q2NDoFvID5u-IrfqQ9W5xdbl5BUGKV1x2rZol5tX3E0kXrto7APp-YH2eVaUaUl5UGuurhY3voPfnKI1gW1fzbBmZx0hd7T9C4FLOMiKLeeyadanqk0PUIBiEqESKcj-iG-F7IT_q0oqMeheLaXw43jM8fH6guSvN5gnbzn2lt1Ozb356Ql20apN1TCXvcdx88vfXDd0mzz6l1Zs-bmFbkLca9ZYE4hFmGNueSC6lyRqarkoKi1plJ58uQAaYT8CQ9tNxUzCZbLoeL_KfOXiibXaNnlNskXLOm1q2YfIQ4EewUDZd3LjAyUK0opWHPBDzjAp3DM58r4kCHBQTLefVNgPgAx3SSWencVDgJR7BYeVhYj1SdxUEPrhtpyJnQgA0tphM21WyVyS9MCi8MUinylR4nzCawlZaKYtnDHPja8Jd2NPd5OKh51vf9ueQcPeQxqeA9MemrlmbGmpH-YQybBUkvbKoMrvXdq4FGyWJiid1_s3475U2UmlSyZjHlrNEA3yXOQ6QC5I4HMe29T5r458dZW0b9Tamd2ywXTgGWfLH4GigXYyZDjcJm3-X0kF4RWz-yvlRMZ5G3kR0tGEUR0oC-5g2Tp6H1AAEDQaAJ8flKuzqg2Xrwal7VftIJS1eHns5NKMGJC7uMKKLAId18er2GDzfjEiauGZTJo4oTe8Xq2bZBnAop13EPakjhQ-mWGaTkZCeEU2RdfVQXgkllU8DNSoHGLkB15xnbAij5kwAjRfrW_jDq-LoqKIvwmCN9_FJtsP7oGAnd1V9Bmd3dzf5-lDF1n7jsVbYkVfdVZ9xlRIQ0CFdvDcYHkpPE7dskYYG_fr2SqaQ43X0KAoK_bxmDHRcQux0dmGRsgqWKd_CeCtd1hlYXVxvY5cEQlGikOsqU7SohCGRBYaipAQACoDyLeboM-klN_aMWb1oezGf_yIm0Lz0RIvQvQ-1e5LptUZsbbCAhZ1gSeerOKUPvUiFNJrccloi9Pn4qqndr0WkUjpVxPzDCbxfTDhq8FuwjVZZI3TXJh6N0k8POFZMGHKTkEu-fZ2z9fbF-7xzdMJy5HSoA5Xk-Rse7yncpNrkzVwzmXLeTY48XsnJcwKBZlPonyZZrDnnC_EOCH3Y09KlhBKmK6CmoFA-HNAhqIqNpxAg94tc_oB6YZsPbJ0tjkhn80Z-bjxVYfPZOXDm9GJGqVhSYsXcZFW67PQWX-eGsNgd9uiLzwWoJBpn078ce1xUIpXH6lrGuNC5g1dJkmy1_ad3IBEvPL0nL9QqTZfDwuo6umheJJ6IMEypj8qbC_xHH4j899KC9PZyPBFL7mWg7jkSSP6AUBfrzRDfcbPytvPh3dctAQ7G8WnIZPCeASPdy2KSX86wK9PkSEFejO1BshPRfSvmibqKqA6tdqfdZguWqFJUKoWnlfhZtVxXNYCxKEDpSsNJNZeskQF90zcM1va6sbSKBbKcmcMPNrv6wssuolpqP90TNXAkI97HY3UYpNrI3C4x5xYr-xfnNwBx5DJSu_l6SZXNRxvkdL4m5NgLu3G3ms6rzT-1qO28U8Z_3iq57aTbE_7fblSQq3b2_QOqw_Un5w1R7xZjWQP4zSc6v94Uw1pKxylhitw86zq_u-N7U7bVyptqy2HZ5Xb6Ht1NfEFkfH2NSspnNS1ruIchYgRJzIUKOyOBmaBWGnrsVBcUqZqVxE__NCQFin9X6QroRAUKAQsWm0kN1FSyyFIapmttu1wF5M5L-08XtYdcoQPZHBg3-SnUMlzvup-HPGXJSz0MsAwWlrMJ4lhkt9Saf7xvWGR8nuVTEtIrVH3gR6RUDkvFGbtv-uKrVVEtacOVZhwLFDCLVmDX58ioRGTlH2lSzti7F23LLmqdbh1N42gvtAlS0o4NTHTUx1Mkzx_wTfF35DEcyDwvOdRdYjcTAsPtEIxLrfKsdHJkDEjUrJtzWTxC_37s_FbnrFYFmlzU9fDZros4S3wPj2SIFJHE9lyUHqyK4LRlDC2amNOF_-BN4-LHNauCiqBikvjMCfHWuGEqFX4_Y8ma-e6rfs-0ymftW7OZFpVsn7YKbnB3d91mUjEs3oAw9dJgaD_a9MPvLT3_00
' URL: http://www.plantuml.com/plantuml/uml/rHbTRzisyDs_GkXU5CGkXc5FGHSqTPesG-rbjj5r7OQ1bXYR24KA99LQwPBVlYCbVaboagO5XZvPl2_U7O_tGR-K2WbL5NGahmWhaK15ab4avObIWgmhXSyppfRa1YS_ZhOanqb6H4RnQ6IeaXaYBFayIfB3po19aUmsAG2K8h6HHyaIPB3DNtyV72NNdEH0Dd5a6wpU8qhoSwPIcJ41r1bY38jnKWfUbCgo0pDXgiCBT4ZX2rXYfcHN0F2X3LxMKk7YA5a5go5DIf9TBJWlLdM9lqvImNDoMJjPelsmbeoJhv9-IIXT2OnK0JRhJMJwi83RqGYjfH8eKqbxP3Wd6Q9Q2NDoFvID5u-IrfqQ9W5xdbl5BUGKV1x2rZol5tX3E0kXrto7APp-YH2eVaUaUl5UGuurhY3voPfnKI1gW1fzbBmZx0hd7T9C4FLOMiKLeeyadanqk0PUIBiEqESKcj-iG-F7IT_q0oqMeheLaXw43jM8fH6guSvN5gnbzn2lt1Ozb356Ql20apN1TCXvcdx88vfXDd0mzz6l1Zs-bmFbkLca9ZYE4hFmGNueSC6lyRqarkoKi1plJ58uQAaYT8CQ9tNxUzCZbLoeL_KfOXiibXaNnlNskXLOm1q2YfIQ4EewUDZd3LjAyUK0opWHPBDzjAp3DM58r4kCHBQTLefVNgPgAx3SSWencVDgJR7BYeVhYj1SdxUEPrhtpyJnQgA0tphM21WyVyS9MCi8MUinylR4nzCawlZaKYtnDHPja8Jd2NPd5OKh51vf9ueQcPeQxqeA9MemrlmbGmpH-YQybBUkvbKoMrvXdq4FGyWJiid1_s3475U2UmlSyZjHlrNEA3yXOQ6QC5I4HMe29T5r458dZW0b9Tamd2ywXTgGWfLH4GigXYyZDjcJm3-X0kF4RWz-yvlRMZ5G3kR0tGEUR0oC-5g2Tp6H1AAEDQaAJ8flKuzqg2Xrwal7VftIJS1eHns5NKMGJC7uMKKLAId18er2GDzfjEiauGZTJo4oTe8Xq2bZBnAop13EPakjhQ-mWGaTkZCeEU2RdfVQXgkllU8DNSoHGLkB15xnbAij5kwAjRfrW_jDq-LoqKIvwmCN9_FJtsP7oGAnd1V9Bmd3dzf5-lDF1n7jsVbYkVfdVZ9xlRIQ0CFdvDcYHkpPE7dskYYG_fr2SqaQ43X0KAoK_bxmDHRcQux0dmGRsgqWKd_CeCtd1hlYXVxvY5cEQlGikOsqU7SohCGRBYaipAQACoDyLeboM-klN_aMWb1oezGf_yIm0Lz0RIvQvQ-1e5LptUZsbbCAhZ1gSeerOKUPvUiFNJrccloi9Pn4qqndr0WkUjpVxPzDCbxfTDhq8FuwjVZZI3TXJh6N0k8POFZMGHKTkEu-fZ2z9fbF-7xzdMJy5HSoA5Xk-Rse7yncpNrkzVwzmXLeTY48XsnJcwKBZlPonyZZrDnnC_EOCH3Y09KlhBKmK6CmoFA-HNAhqIqNpxAg94tc_oB6YZsPbJ0tjkhn80Z-bjxVYfPZOXDm9GJGqVhSYsXcZFW67PQWX-eGsNgd9uiLzwWoJBpn078ce1xUIpXH6lrGuNC5g1dJkmy1_ad3IBEvPL0nL9QqTZfDwuo6umheJJ6IMEypj8qbC_xHH4j899KC9PZyPBFL7mWg7jkSSP6AUBfrzRDfcbPytvPh3dctAQ7G8WnIZPCeASPdy2KSX86wK9PkSEFejO1BshPRfSvmibqKqA6tdqfdZguWqFJUKoWnlfhZtVxXNYCxKEDpSsNJNZeskQF90zcM1va6sbSKBbKcmcMPNrv6wssuolpqP90TNXAkI97HY3UYpNrI3C4x5xYr-xfnNwBx5DJSu_l6SZXNRxvkdL4m5NgLu3G3ms6rzT-1qO28U8Z_3iq57aTbE_7fblSQq3b2_QOqw_Un5w1R7xZjWQP4zSc6v94Uw1pKxylhitw86zq_u-N7U7bVyptqy2HZ5Xb6Ht1NfEFkfH2NSspnNS1ruIchYgRJzIUKOyOBmaBWGnrsVBcUqZqVxE__NCQFin9X6QroRAUKAQsWm0kN1FSyyFIapmttu1wF5M5L-08XtYdcoQPZHBg3-SnUMlzvup-HPGXJSz0MsAwWlrMJ4lhkt9Saf7xvWGR8nuVTEtIrVH3gR6RUDkvFGbtv-uKrVVEtacOVZhwLFDCLVmDX58ioRGTlH2lSzti7F23LLmqdbh1N42gvtAlS0o4NTHTUx1Mkzx_wTfF35DEcyDwvOdRdYjcTAsPtEIxLrfKsdHJkDEjUrJtzWTxC_37s_FbnrFYFmlzU9fDZros4S3wPj2SIFJHE9lyUHqyK4LRlDC2amNOF_-BN4-LHNauCiqBikvjMCfHWuGEqFX4_Y8ma-e6rfs-0ymftW7OZFpVsn7YKbnB3d91mUjEs3oAw9dJgaD_a9MPvLT3_00
' Generated on: 2026-04-30T15:45:42.007255900

@startuml
skinparam classAttributeIconSize 0
hide circle

class Main {
  +{static} main(args: String[]): void
  -{static} getValidInt(scnr: Scanner, prompt: String): int
  -{static} generatePatients(scnr: Scanner, triageSystem: TriageSystem): void
  -{static} pickRoomType(scnr: Scanner, triageSystem: TriageSystem): void
  -{static} modifyRoomType(roomType: String, scnr: Scanner, triageSystem: TriageSystem): void
  -{static} fillTreatmentRooms(triageSystem: TriageSystem): void
}

abstract class MedicalScan {
  #patient: Patient
  #scanId: String
  #scanDate: String
  #bodyRegion: String
  #voxels: ArrayList<Voxel>
  #midAbnormalVoxelList: LinkedList<Voxel>
  #critAbnormalVoxelList: LinkedList<Voxel>
  #totalAbnormalVoxelList: LinkedList<Voxel>
  --
  +MedicalScan(patient: Patient, scanId: String, scanDate: String, bodyRegion: String)
  +getPatient(): Patient
  +getScanId(): String
  +getScanDate(): String
  +getBodyRegion(): String
  +getVoxels(): ArrayList<Voxel>
  +getCritAbnormalVoxelList(): LinkedList<Voxel>
  +getMidAbnormalVoxelList(): LinkedList<Voxel>
  +getTotalAbnormalVoxelList(): LinkedList<Voxel>
  +addVoxel(voxel: Voxel): void
  +removeVoxel(voxel: Voxel): void
  +getVoxel(index: int): Voxel
  +getVoxel(x: int, y: int, z: int): Voxel
  +sortByDangerScore(): void
  -mergeSort(list: ArrayList<Voxel>): ArrayList<Voxel>
  -merge(left: ArrayList<Voxel>, right: ArrayList<Voxel>): ArrayList<Voxel>
  +binarySearchCutoff(threshold: double): int
  +buildCriticallyAbnormalVoxelList(thresholdCrit: double): void
  +buildMidAbnormalVoxelList(thresholdMid: double, thresholdCrit: double): void
  +buildTotalAbnormalVoxelList(thresholdMid: double, thresholdCrit: double): void
  +getMostSevereVoxel(): Voxel
  +calculateDangerScore(voxel: Voxel): double
  +explainVoxel(voxel: Voxel): String
  +analyze(): String
}

class MuscSkelScan {
  +MuscSkelScan(patient: Patient, scanId: String, scanDate: String)
  +calculateDangerScore(voxel: Voxel): double
  +explainVoxel(voxel: Voxel): String
  +analyze(): String
}

class NeuroScan {
  +NeuroScan(patient: Patient, scanId: String, scanDate: String)
  +calculateDangerScore(voxel: Voxel): double
  +explainVoxel(voxel: Voxel): String
  +analyze(): String
}

class Patient {
  -id: String
  -name: String
  -age: int
  -sex: String
  -assignedRoomType: String
  -scans: ArrayList<MedicalScan>
  --
  +Patient(id: String, name: String, age: int, sex: String)
  +getId(): String
  +getName(): String
  +getAge(): int
  +getSex(): String
  +setAssignedRoomType(type: String): void
  +getAssignedRoomType(): String
  +getScans(): ArrayList<MedicalScan>
  +addScan(scan: MedicalScan): void
  -ageMultiplier(): double
  +getMaxDangerScore(): double
  +getTotalAbnormalVoxels(): int
  +getTotalCritVoxels(): int
  +getTotalMidVoxels(): int
  +getCriticalScanRegion(): MedicalScan
  +getCriticalFinding(): String
  +getTriageScore(): double
  +toString(): String
  +compareTo(other: Patient): int
}

class PatientGenerator {
  -{static} RANDOM: Random = new Random(42)
  -{static} FIRST_NAMES: String = { "Ryan", "Emma", "Cillian", "Scarlett", "Robert", "Natalie", "Chris", "Margot", "Tom", "Zendaya" }
  -{static} LAST_NAMES: String = { "Gosling", "Stone", "Murphy", "Johansson", "Downey", "Portman", "Evans", "Robbie", "Holland", "Coleman" }
  -{static} SEXES: String = { "M", "F" }
  --
  +{static} generatePatient(id: String): Patient
  +{static} generatePatients(count: int): ArrayList<Patient>
  -{static} randomName(): String
  -{static} fillScan(scan: MedicalScan, type: String): void
}

class PelvicScan {
  +PelvicScan(patient: Patient, scanId: String, scanDate: String)
  +calculateDangerScore(voxel: Voxel): double
  +explainVoxel(voxel: Voxel): String
  +analyze(): String
}

class TorsoScan {
  +TorsoScan(patient: Patient, scanId: String, scanDate: String)
  +calculateDangerScore(voxel: Voxel): double
  +explainVoxel(voxel: Voxel): String
  +analyze(): String
}

class TriageSystem {
  -patientQueue: PriorityQueue<Patient> = new PriorityQueue<>()
  -totalRooms: Map<String, Integer> = new HashMap<>()
  -occupiedRooms: Map<String, Integer> = new HashMap<>()
  -unoccupiedRooms: Map<String, Integer> = new HashMap<>()
  -inTreatment: List<Patient> = new ArrayList<>()
  --
  +getCurrentlyInTreatment(): List<Patient>
  +printInTreatment(): void
  +moveToTreatment(p: Patient): void
  +removeFromTreatment(p: Patient): void
  -treatScan(scan: MedicalScan): void
  +getTotalRooms(roomType: String): int
  -treatPatient(p: Patient): void
  +applyTreatmentCycle(): void
  +releaseRoom(roomType: String): void
  +printRoomStatus(): void
  +countPatientsWaitingFor(region: String): int
  +assignToRoom(roomType: String): boolean
  +addRoom(roomType: String, count: int): void
  +removeRoom(roomType: String, count: int): void
  +initializeRooms(brain: int, pelvis: int, musc: int, torso: int): void
  +addPatient(p: Patient): void
  +peekNextPatient(): Patient
  +getNext(): Patient
  +printQueue(): void
}

class Voxel {
  -cho: double
  -naa: double
  -tcr: double
  -pdff: double
  -ph: double
  -cit: double
  -pcr: double
  -pi: double
  -imcl: double
  -cr: double
  -dangerScore: double
  -x: int
  -y: int
  -z: int
  -region: String
  --
  +Voxel(x: int, y: int, z: int, cho: double, naa: double, tcr: double, pdff: double, ph: double, cit: double, pcr: double, pi: double, imcl: double, cr: double)
  +getCho(): double
  +getNaa(): double
  +getTcr(): double
  +getPdff(): double
  +getPh(): double
  +getCit(): double
  +getPcr(): double
  +getPi(): double
  +getImcl(): double
  +getCr(): double
  +getX(): int
  +getY(): int
  +getZ(): int
  +getDangerScore(): double
  +getRegion(): String
  +setDangerScore(score: double): void
  +setRegion(region: String): void
  +calculateRatio(numerator: double, denominator: double): double
  +toString(): String
}

class VoxelGenerator {
  -{static} RANDOM: Random = new Random()
  --
  +{static} generateScan(scanType: String, includeAbnormalCluster: boolean): ArrayList<Voxel>
  +{static} generateNormalScan(scanType: String): ArrayList<Voxel>
  +{static} generateAbnormalScan(scanType: String): ArrayList<Voxel>
  -{static} buildAbnormalCluster(xMax: int, yMax: int, zMax: int, abnormalCount: int): Map<String,Integer>
  -{static} buildVoxel(scanType: String, x: int, y: int, z: int, severity: double, abnormal: boolean): Voxel
  -{static} buildNeuroVoxel(x: int, y: int, z: int, severity: double): Voxel
  -{static} buildPelvicVoxel(x: int, y: int, z: int, severity: double): Voxel
  -{static} buildMuscSkelVoxel(x: int, y: int, z: int, severity: double): Voxel
  -{static} buildTorsoVoxel(x: int, y: int, z: int, severity: double): Voxel
  -{static} lerp(normalValue: double, abnormalValue: double, severity: double): double
  -{static} inBounds(x: int, y: int, z: int, xMax: int, yMax: int, zMax: int): boolean
  -{static} key(x: int, y: int, z: int): String
}

class Cell {
  ~x: int
  ~y: int
  ~z: int
  ~depth: int
  --
  ~Cell(x: int, y: int, z: int, depth: int)
}

Main ..> TriageSystem
MedicalScan --> Patient
MedicalScan o-- Voxel
MuscSkelScan --|> MedicalScan
MuscSkelScan ..> Voxel
MuscSkelScan ..> Patient
NeuroScan --|> MedicalScan
NeuroScan ..> Voxel
NeuroScan ..> Patient
Patient o-- MedicalScan
Patient ..> Patient
PatientGenerator ..> Patient
PatientGenerator ..> MedicalScan
PelvicScan --|> MedicalScan
PelvicScan ..> Voxel
PelvicScan ..> Patient
TorsoScan --|> MedicalScan
TorsoScan ..> Voxel
TorsoScan ..> Patient
TriageSystem o-- Patient
TriageSystem ..> MedicalScan
VoxelGenerator ..> Voxel
@enduml